<?xml version="1.0" encoding="UTF-8"?>
<svg width="14px" height="14px" viewBox="0 0 14 14" version="1.1" xmlns="http://www.w3.org/2000/svg" xmlns:xlink="http://www.w3.org/1999/xlink">
    <title>Path</title>
    <g id="Templates" stroke="none" stroke-width="1" fill="none" fill-rule="evenodd">
        <g id="Artboard" transform="translate(-301.000000, -373.000000)" fill="#000000" fill-rule="nonzero">
            <g id="Group" transform="translate(-10.645327, -9.473424)">
                <g id="noun-cross-1121797-copy-198" transform="translate(318.830136, 389.830133) rotate(30.000000) translate(-318.830136, -389.830133) translate(313.830127, 384.830131)">
                    <path d="M6.30336674,5 L9.73008793,1.57328741 C10.0899936,1.21338171 10.0899936,0.629834974 9.73008793,0.269929274 C9.37018223,-0.0899764248 8.7866355,-0.0899764248 8.4267298,0.269929274 L5,3.69666268 L1.57328741,0.269941481 C1.21338171,-0.089964218 0.629834974,-0.089964218 0.269929274,0.269941481 C-0.0899764248,0.629847181 -0.0899764248,1.21339392 0.269929274,1.57329962 L3.69665047,5 L0.269941481,8.4267298 C-0.089964218,8.7866355 -0.089964218,9.37017003 0.269941481,9.73007573 C0.629847181,10.0899814 1.21338171,10.0899814 1.57328741,9.73007573 L5,6.30336674 L8.4267298,9.73007573 C8.7866355,10.0899814 9.37017003,10.0899814 9.73007573,9.73007573 C10.0899814,9.37017003 10.0899814,8.7866355 9.73007573,8.4267298 L6.30336674,5 Z" id="Path"></path>
                </g>
            </g>
        </g>
    </g>
</svg>