<?xml version="1.0" encoding="UTF-8"?>
<svg width="43px" height="50px" viewBox="0 0 43 50" version="1.1" xmlns="http://www.w3.org/2000/svg" xmlns:xlink="http://www.w3.org/1999/xlink">
    <title>Group Copy 3</title>
    <g id="Page-1" stroke="none" stroke-width="1" fill="none" fill-rule="evenodd">
        <g id="Artboard" transform="translate(-706.000000, -150.000000)" fill="#000000">
            <g id="Group-Copy-3" transform="translate(706.000000, 150.000000)">
                <circle id="Oval" cx="21.5" cy="2" r="2"></circle>
                <circle id="Oval-Copy" cx="21.5" cy="14.5" r="2.5"></circle>
                <circle id="Oval-Copy-6" cx="2" cy="25" r="2"></circle>
                <circle id="Oval-Copy-7" cx="2" cy="36" r="2"></circle>
                <circle id="Oval-Copy-8" cx="12" cy="42" r="2"></circle>
                <circle id="Oval-Copy-9" cx="11.5" cy="31.5" r="2.5"></circle>
                <circle id="Oval-Copy-10" cx="21.5" cy="25.5" r="3"></circle>
                <circle id="Oval-Copy-11" cx="21.5" cy="36.5" r="2.5"></circle>
                <circle id="Oval-Copy-15" cx="32" cy="42" r="2"></circle>
                <circle id="Oval-Copy-16" cx="41" cy="36" r="2"></circle>
                <circle id="Oval-Copy-17" cx="41" cy="25" r="2"></circle>
                <circle id="Oval-Copy-18" cx="41" cy="14" r="2"></circle>
                <circle id="Oval-Copy-14" cx="31.5" cy="31.5" r="2.5"></circle>
                <circle id="Oval-Copy-13" cx="31.5" cy="19.5" r="2.5"></circle>
                <circle id="Oval-Copy-12" cx="21.5" cy="48" r="2"></circle>
                <circle id="Oval-Copy-5" cx="2" cy="14" r="2"></circle>
                <circle id="Oval-Copy-4" cx="11.5" cy="19.5" r="2.5"></circle>
                <circle id="Oval-Copy-3" cx="12" cy="7" r="2"></circle>
                <circle id="Oval-Copy-2" cx="32" cy="7" r="2"></circle>
            </g>
        </g>
    </g>
</svg>