<svg width="914" height="976" viewBox="0 0 914 976" fill="none" xmlns="http://www.w3.org/2000/svg">
<g style="mix-blend-mode:soft-light" opacity="0.7">
<path d="M48.6486 0H-0.151428V48.8M48.6486 0V48.8M48.6486 0H97.4486M48.6486 48.8H-0.151428M48.6486 48.8V97.6M48.6486 48.8H97.4486M-0.151428 48.8V97.6M48.6486 97.6H-0.151428M48.6486 97.6V146.4M48.6486 97.6H97.4486M-0.151428 97.6V146.4M48.6486 146.4H-0.151428M48.6486 146.4V195.2M48.6486 146.4H97.4486M-0.151428 146.4V195.2M48.6486 195.2H-0.151428M48.6486 195.2V244M48.6486 195.2H97.4486M-0.151428 195.2V244M48.6486 244H-0.151428M48.6486 244V292.8M48.6486 244H97.4486M-0.151428 244V292.8M48.6486 292.8H-0.151428M48.6486 292.8V341.6M48.6486 292.8H97.4486M-0.151428 292.8V341.6M48.6486 341.6H-0.151428M48.6486 341.6V390.4M48.6486 341.6H97.4486M-0.151428 341.6V390.4M48.6486 390.4H-0.151428M48.6486 390.4V439.2M48.6486 390.4H97.4486M-0.151428 390.4V439.2M48.6486 439.2H-0.151428M48.6486 439.2V488M48.6486 439.2H97.4486M-0.151428 439.2V488M48.6486 488H-0.151428M48.6486 488V536.8M48.6486 488H97.4486M-0.151428 488V536.8M48.6486 536.8H-0.151428M48.6486 536.8V585.6M48.6486 536.8H97.4486M-0.151428 536.8V585.6M48.6486 585.6H-0.151428M48.6486 585.6V634.4M48.6486 585.6H97.4486M-0.151428 585.6V634.4M48.6486 634.4H-0.151428M48.6486 634.4V683.2M48.6486 634.4H97.4486M-0.151428 634.4V683.2M48.6486 683.2H-0.151428M48.6486 683.2V732M48.6486 683.2H97.4486M-0.151428 683.2V732M48.6486 732H-0.151428M48.6486 732V780.8M48.6486 732H97.4486M-0.151428 732V780.8M48.6486 780.8H-0.151428M48.6486 780.8V829.6M48.6486 780.8H97.4486M-0.151428 780.8V829.6M48.6486 829.6H-0.151428M48.6486 829.6V878.4M48.6486 829.6H97.4486M-0.151428 829.6V878.4M48.6486 878.4H-0.151428M48.6486 878.4V927.2M48.6486 878.4H97.4486M-0.151428 878.4V927.2M48.6486 927.2H-0.151428M48.6486 927.2V976M48.6486 927.2H97.4486M-0.151428 927.2V976H48.6486M48.6486 976H97.4486M97.4486 0V48.8M97.4486 0H146.249M97.4486 48.8V97.6M97.4486 48.8H146.249M97.4486 97.6V146.4M97.4486 97.6H146.249M97.4486 146.4V195.2M97.4486 146.4H146.249M97.4486 195.2V244M97.4486 195.2H146.249M97.4486 244V292.8M97.4486 244H146.249M97.4486 292.8V341.6M97.4486 292.8H146.249M97.4486 341.6V390.4M97.4486 341.6H146.249M97.4486 390.4V439.2M97.4486 390.4H146.249M97.4486 439.2V488M97.4486 439.2H146.249M97.4486 488V536.8M97.4486 488H146.249M97.4486 536.8V585.6M97.4486 536.8H146.249M97.4486 585.6V634.4M97.4486 585.6H146.249M97.4486 634.4V683.2M97.4486 634.4H146.249M97.4486 683.2V732M97.4486 683.2H146.249M97.4486 732V780.8M97.4486 732H146.249M97.4486 780.8V829.6M97.4486 780.8H146.249M97.4486 829.6V878.4M97.4486 829.6H146.249M97.4486 878.4V927.2M97.4486 878.4H146.249M97.4486 927.2V976M97.4486 927.2H146.249M97.4486 976H146.249M146.249 0V48.8M146.249 0H195.049M146.249 48.8V97.6M146.249 48.8H195.049M146.249 97.6V146.4M146.249 97.6H195.049M146.249 146.4V195.2M146.249 146.4H195.049M146.249 195.2V244M146.249 195.2H195.049M146.249 244V292.8M146.249 244H195.049M146.249 292.8V341.6M146.249 292.8H195.049M146.249 341.6V390.4M146.249 341.6H195.049M146.249 390.4V439.2M146.249 390.4H195.049M146.249 439.2V488M146.249 439.2H195.049M146.249 488V536.8M146.249 488H195.049M146.249 536.8V585.6M146.249 536.8H195.049M146.249 585.6V634.4M146.249 585.6H195.049M146.249 634.4V683.2M146.249 634.4H195.049M146.249 683.2V732M146.249 683.2H195.049M146.249 732V780.8M146.249 732H195.049M146.249 780.8V829.6M146.249 780.8H195.049M146.249 829.6V878.4M146.249 829.6H195.049M146.249 878.4V927.2M146.249 878.4H195.049M146.249 927.2V976M146.249 927.2H195.049M146.249 976H195.049M195.049 0V48.8M195.049 0H243.849M195.049 48.8V97.6M195.049 48.8H243.849M195.049 97.6V146.4M195.049 97.6H243.849M195.049 146.4V195.2M195.049 146.4H243.849M195.049 195.2V244M195.049 195.2H243.849M195.049 244V292.8M195.049 244H243.849M195.049 292.8V341.6M195.049 292.8H243.849M195.049 341.6V390.4M195.049 341.6H243.849M195.049 390.4V439.2M195.049 390.4H243.849M195.049 439.2V488M195.049 439.2H243.849M195.049 488V536.8M195.049 488H243.849M195.049 536.8V585.6M195.049 536.8H243.849M195.049 585.6V634.4M195.049 585.6H243.849M195.049 634.4V683.2M195.049 634.4H243.849M195.049 683.2V732M195.049 683.2H243.849M195.049 732V780.8M195.049 732H243.849M195.049 780.8V829.6M195.049 780.8H243.849M195.049 829.6V878.4M195.049 829.6H243.849M195.049 878.4V927.2M195.049 878.4H243.849M195.049 927.2V976M195.049 927.2H243.849M195.049 976H243.849M243.849 0V48.8M243.849 0H292.649M243.849 48.8V97.6M243.849 48.8H292.649M243.849 97.6V146.4M243.849 97.6H292.649M243.849 146.4V195.2M243.849 146.4H292.649M243.849 195.2V244M243.849 195.2H292.649M243.849 244V292.8M243.849 244H292.649M243.849 292.8V341.6M243.849 292.8H292.649M243.849 341.6V390.4M243.849 341.6H292.649M243.849 390.4V439.2M243.849 390.4H292.649M243.849 439.2V488M243.849 439.2H292.649M243.849 488V536.8M243.849 488H292.649M243.849 536.8V585.6M243.849 536.8H292.649M243.849 585.6V634.4M243.849 585.6H292.649M243.849 634.4V683.2M243.849 634.4H292.649M243.849 683.2V732M243.849 683.2H292.649M243.849 732V780.8M243.849 732H292.649M243.849 780.8V829.6M243.849 780.8H292.649M243.849 829.6V878.4M243.849 829.6H292.649M243.849 878.4V927.2M243.849 878.4H292.649M243.849 927.2V976M243.849 927.2H292.649M243.849 976H292.649M292.649 0V48.8M292.649 0H341.449M292.649 48.8V97.6M292.649 48.8H341.449M292.649 97.6V146.4M292.649 97.6H341.449M292.649 146.4V195.2M292.649 146.4H341.449M292.649 195.2V244M292.649 195.2H341.449M292.649 244V292.8M292.649 244H341.449M292.649 292.8V341.6M292.649 292.8H341.449M292.649 341.6V390.4M292.649 341.6H341.449M292.649 390.4V439.2M292.649 390.4H341.449M292.649 439.2V488M292.649 439.2H341.449M292.649 488V536.8M292.649 488H341.449M292.649 536.8V585.6M292.649 536.8H341.449M292.649 585.6V634.4M292.649 585.6H341.449M292.649 634.4V683.2M292.649 634.4H341.449M292.649 683.2V732M292.649 683.2H341.449M292.649 732V780.8M292.649 732H341.449M292.649 780.8V829.6M292.649 780.8H341.449M292.649 829.6V878.4M292.649 829.6H341.449M292.649 878.4V927.2M292.649 878.4H341.449M292.649 927.2V976M292.649 927.2H341.449M292.649 976H341.449M341.449 0V48.8M341.449 0H390.249M341.449 48.8V97.6M341.449 48.8H390.249M341.449 97.6V146.4M341.449 97.6H390.249M341.449 146.4V195.2M341.449 146.4H390.249M341.449 195.2V244M341.449 195.2H390.249M341.449 244V292.8M341.449 244H390.249M341.449 292.8V341.6M341.449 292.8H390.249M341.449 341.6V390.4M341.449 341.6H390.249M341.449 390.4V439.2M341.449 390.4H390.249M341.449 439.2V488M341.449 439.2H390.249M341.449 488V536.8M341.449 488H390.249M341.449 536.8V585.6M341.449 536.8H390.249M341.449 585.6V634.4M341.449 585.6H390.249M341.449 634.4V683.2M341.449 634.4H390.249M341.449 683.2V732M341.449 683.2H390.249M341.449 732V780.8M341.449 732H390.249M341.449 780.8V829.6M341.449 780.8H390.249M341.449 829.6V878.4M341.449 829.6H390.249M341.449 878.4V927.2M341.449 878.4H390.249M341.449 927.2V976M341.449 927.2H390.249M341.449 976H390.249M390.249 0V48.8M390.249 0H439.049M390.249 48.8V97.6M390.249 48.8H439.049M390.249 97.6V146.4M390.249 97.6H439.049M390.249 146.4V195.2M390.249 146.4H439.049M390.249 195.2V244M390.249 195.2H439.049M390.249 244V292.8M390.249 244H439.049M390.249 292.8V341.6M390.249 292.8H439.049M390.249 341.6V390.4M390.249 341.6H439.049M390.249 390.4V439.2M390.249 390.4H439.049M390.249 439.2V488M390.249 439.2H439.049M390.249 488V536.8M390.249 488H439.049M390.249 536.8V585.6M390.249 536.8H439.049M390.249 585.6V634.4M390.249 585.6H439.049M390.249 634.4V683.2M390.249 634.4H439.049M390.249 683.2V732M390.249 683.2H439.049M390.249 732V780.8M390.249 732H439.049M390.249 780.8V829.6M390.249 780.8H439.049M390.249 829.6V878.4M390.249 829.6H439.049M390.249 878.4V927.2M390.249 878.4H439.049M390.249 927.2V976M390.249 927.2H439.049M390.249 976H439.049M439.049 0V48.8M439.049 0H487.849M439.049 48.8V97.6M439.049 48.8H487.849M439.049 97.6V146.4M439.049 97.6H487.849M439.049 146.4V195.2M439.049 146.4H487.849M439.049 195.2V244M439.049 195.2H487.849M439.049 244V292.8M439.049 244H487.849M439.049 292.8V341.6M439.049 292.8H487.849M439.049 341.6V390.4M439.049 341.6H487.849M439.049 390.4V439.2M439.049 390.4H487.849M439.049 439.2V488M439.049 439.2H487.849M439.049 488V536.8M439.049 488H487.849M439.049 536.8V585.6M439.049 536.8H487.849M439.049 585.6V634.4M439.049 585.6H487.849M439.049 634.4V683.2M439.049 634.4H487.849M439.049 683.2V732M439.049 683.2H487.849M439.049 732V780.8M439.049 732H487.849M439.049 780.8V829.6M439.049 780.8H487.849M439.049 829.6V878.4M439.049 829.6H487.849M439.049 878.4V927.2M439.049 878.4H487.849M439.049 927.2V976M439.049 927.2H487.849M439.049 976H487.849M487.849 0V48.8M487.849 0H536.649M487.849 48.8V97.6M487.849 48.8H536.649M487.849 97.6V146.4M487.849 97.6H536.649M487.849 146.4V195.2M487.849 146.4H536.649M487.849 195.2V244M487.849 195.2H536.649M487.849 244V292.8M487.849 244H536.649M487.849 292.8V341.6M487.849 292.8H536.649M487.849 341.6V390.4M487.849 341.6H536.649M487.849 390.4V439.2M487.849 390.4H536.649M487.849 439.2V488M487.849 439.2H536.649M487.849 488V536.8M487.849 488H536.649M487.849 536.8V585.6M487.849 536.8H536.649M487.849 585.6V634.4M487.849 585.6H536.649M487.849 634.4V683.2M487.849 634.4H536.649M487.849 683.2V732M487.849 683.2H536.649M487.849 732V780.8M487.849 732H536.649M487.849 780.8V829.6M487.849 780.8H536.649M487.849 829.6V878.4M487.849 829.6H536.649M487.849 878.4V927.2M487.849 878.4H536.649M487.849 927.2V976M487.849 927.2H536.649M487.849 976H536.649M536.649 0V48.8M536.649 0H585.449M536.649 48.8V97.6M536.649 48.8H585.449M536.649 97.6V146.4M536.649 97.6H585.449M536.649 146.4V195.2M536.649 146.4H585.449M536.649 195.2V244M536.649 195.2H585.449M536.649 244V292.8M536.649 244H585.449M536.649 292.8V341.6M536.649 292.8H585.449M536.649 341.6V390.4M536.649 341.6H585.449M536.649 390.4V439.2M536.649 390.4H585.449M536.649 439.2V488M536.649 439.2H585.449M536.649 488V536.8M536.649 488H585.449M536.649 536.8V585.6M536.649 536.8H585.449M536.649 585.6V634.4M536.649 585.6H585.449M536.649 634.4V683.2M536.649 634.4H585.449M536.649 683.2V732M536.649 683.2H585.449M536.649 732V780.8M536.649 732H585.449M536.649 780.8V829.6M536.649 780.8H585.449M536.649 829.6V878.4M536.649 829.6H585.449M536.649 878.4V927.2M536.649 878.4H585.449M536.649 927.2V976M536.649 927.2H585.449M536.649 976H585.449M585.449 0V48.8M585.449 0H634.249M585.449 48.8V97.6M585.449 48.8H634.249M585.449 97.6V146.4M585.449 97.6H634.249M585.449 146.4V195.2M585.449 146.4H634.249M585.449 195.2V244M585.449 195.2H634.249M585.449 244V292.8M585.449 244H634.249M585.449 292.8V341.6M585.449 292.8H634.249M585.449 341.6V390.4M585.449 341.6H634.249M585.449 390.4V439.2M585.449 390.4H634.249M585.449 439.2V488M585.449 439.2H634.249M585.449 488V536.8M585.449 488H634.249M585.449 536.8V585.6M585.449 536.8H634.249M585.449 585.6V634.4M585.449 585.6H634.249M585.449 634.4V683.2M585.449 634.4H634.249M585.449 683.2V732M585.449 683.2H634.249M585.449 732V780.8M585.449 732H634.249M585.449 780.8V829.6M585.449 780.8H634.249M585.449 829.6V878.4M585.449 829.6H634.249M585.449 878.4V927.2M585.449 878.4H634.249M585.449 927.2V976M585.449 927.2H634.249M585.449 976H634.249M634.249 0V48.8M634.249 0H683.049M634.249 48.8V97.6M634.249 48.8H683.049M634.249 97.6V146.4M634.249 97.6H683.049M634.249 146.4V195.2M634.249 146.4H683.049M634.249 195.2V244M634.249 195.2H683.049M634.249 244V292.8M634.249 244H683.049M634.249 292.8V341.6M634.249 292.8H683.049M634.249 341.6V390.4M634.249 341.6H683.049M634.249 390.4V439.2M634.249 390.4H683.049M634.249 439.2V488M634.249 439.2H683.049M634.249 488V536.8M634.249 488H683.049M634.249 536.8V585.6M634.249 536.8H683.049M634.249 585.6V634.4M634.249 585.6H683.049M634.249 634.4V683.2M634.249 634.4H683.049M634.249 683.2V732M634.249 683.2H683.049M634.249 732V780.8M634.249 732H683.049M634.249 780.8V829.6M634.249 780.8H683.049M634.249 829.6V878.4M634.249 829.6H683.049M634.249 878.4V927.2M634.249 878.4H683.049M634.249 927.2V976M634.249 927.2H683.049M634.249 976H683.049M683.049 0V48.8M683.049 0H731.849M683.049 48.8V97.6M683.049 48.8H731.849M683.049 97.6V146.4M683.049 97.6H731.849M683.049 146.4V195.2M683.049 146.4H731.849M683.049 195.2V244M683.049 195.2H731.849M683.049 244V292.8M683.049 244H731.849M683.049 292.8V341.6M683.049 292.8H731.849M683.049 341.6V390.4M683.049 341.6H731.849M683.049 390.4V439.2M683.049 390.4H731.849M683.049 439.2V488M683.049 439.2H731.849M683.049 488V536.8M683.049 488H731.849M683.049 536.8V585.6M683.049 536.8H731.849M683.049 585.6V634.4M683.049 585.6H731.849M683.049 634.4V683.2M683.049 634.4H731.849M683.049 683.2V732M683.049 683.2H731.849M683.049 732V780.8M683.049 732H731.849M683.049 780.8V829.6M683.049 780.8H731.849M683.049 829.6V878.4M683.049 829.6H731.849M683.049 878.4V927.2M683.049 878.4H731.849M683.049 927.2V976M683.049 927.2H731.849M683.049 976H731.849M731.849 0V48.8M731.849 0H780.649M731.849 48.8V97.6M731.849 48.8H780.649M731.849 97.6V146.4M731.849 97.6H780.649M731.849 146.4V195.2M731.849 146.4H780.649M731.849 195.2V244M731.849 195.2H780.649M731.849 244V292.8M731.849 244H780.649M731.849 292.8V341.6M731.849 292.8H780.649M731.849 341.6V390.4M731.849 341.6H780.649M731.849 390.4V439.2M731.849 390.4H780.649M731.849 439.2V488M731.849 439.2H780.649M731.849 488V536.8M731.849 488H780.649M731.849 536.8V585.6M731.849 536.8H780.649M731.849 585.6V634.4M731.849 585.6H780.649M731.849 634.4V683.2M731.849 634.4H780.649M731.849 683.2V732M731.849 683.2H780.649M731.849 732V780.8M731.849 732H780.649M731.849 780.8V829.6M731.849 780.8H780.649M731.849 829.6V878.4M731.849 829.6H780.649M731.849 878.4V927.2M731.849 878.4H780.649M731.849 927.2V976M731.849 927.2H780.649M731.849 976H780.649M780.649 0V48.8M780.649 0H829.449M780.649 48.8V97.6M780.649 48.8H829.449M780.649 97.6V146.4M780.649 97.6H829.449M780.649 146.4V195.2M780.649 146.4H829.449M780.649 195.2V244M780.649 195.2H829.449M780.649 244V292.8M780.649 244H829.449M780.649 292.8V341.6M780.649 292.8H829.449M780.649 341.6V390.4M780.649 341.6H829.449M780.649 390.4V439.2M780.649 390.4H829.449M780.649 439.2V488M780.649 439.2H829.449M780.649 488V536.8M780.649 488H829.449M780.649 536.8V585.6M780.649 536.8H829.449M780.649 585.6V634.4M780.649 585.6H829.449M780.649 634.4V683.2M780.649 634.4H829.449M780.649 683.2V732M780.649 683.2H829.449M780.649 732V780.8M780.649 732H829.449M780.649 780.8V829.6M780.649 780.8H829.449M780.649 829.6V878.4M780.649 829.6H829.449M780.649 878.4V927.2M780.649 878.4H829.449M780.649 927.2V976M780.649 927.2H829.449M780.649 976H829.449M829.449 0V48.8M829.449 0H878.249M829.449 48.8V97.6M829.449 48.8H878.249M829.449 97.6V146.4M829.449 97.6H878.249M829.449 146.4V195.2M829.449 146.4H878.249M829.449 195.2V244M829.449 195.2H878.249M829.449 244V292.8M829.449 244H878.249M829.449 292.8V341.6M829.449 292.8H878.249M829.449 341.6V390.4M829.449 341.6H878.249M829.449 390.4V439.2M829.449 390.4H878.249M829.449 439.2V488M829.449 439.2H878.249M829.449 488V536.8M829.449 488H878.249M829.449 536.8V585.6M829.449 536.8H878.249M829.449 585.6V634.4M829.449 585.6H878.249M829.449 634.4V683.2M829.449 634.4H878.249M829.449 683.2V732M829.449 683.2H878.249M829.449 732V780.8M829.449 732H878.249M829.449 780.8V829.6M829.449 780.8H878.249M829.449 829.6V878.4M829.449 829.6H878.249M829.449 878.4V927.2M829.449 878.4H878.249M829.449 927.2V976M829.449 927.2H878.249M829.449 976H878.249M878.249 0V48.8M878.249 0H927.049M878.249 48.8V97.6M878.249 48.8H927.049M878.249 97.6V146.4M878.249 97.6H927.049M878.249 146.4V195.2M878.249 146.4H927.049M878.249 195.2V244M878.249 195.2H927.049M878.249 244V292.8M878.249 244H927.049M878.249 292.8V341.6M878.249 292.8H927.049M878.249 341.6V390.4M878.249 341.6H927.049M878.249 390.4V439.2M878.249 390.4H927.049M878.249 439.2V488M878.249 439.2H927.049M878.249 488V536.8M878.249 488H927.049M878.249 536.8V585.6M878.249 536.8H927.049M878.249 585.6V634.4M878.249 585.6H927.049M878.249 634.4V683.2M878.249 634.4H927.049M878.249 683.2V732M878.249 683.2H927.049M878.249 732V780.8M878.249 732H927.049M878.249 780.8V829.6M878.249 780.8H927.049M878.249 829.6V878.4M878.249 829.6H927.049M878.249 878.4V927.2M878.249 878.4H927.049M878.249 927.2V976M878.249 927.2H927.049M878.249 976H927.049M927.049 0V48.8M927.049 0H975.849M927.049 48.8V97.6M927.049 48.8H975.849M927.049 97.6V146.4M927.049 97.6H975.849M927.049 146.4V195.2M927.049 146.4H975.849M927.049 195.2V244M927.049 195.2H975.849M927.049 244V292.8M927.049 244H975.849M927.049 292.8V341.6M927.049 292.8H975.849M927.049 341.6V390.4M927.049 341.6H975.849M927.049 390.4V439.2M927.049 390.4H975.849M927.049 439.2V488M927.049 439.2H975.849M927.049 488V536.8M927.049 488H975.849M927.049 536.8V585.6M927.049 536.8H975.849M927.049 585.6V634.4M927.049 585.6H975.849M927.049 634.4V683.2M927.049 634.4H975.849M927.049 683.2V732M927.049 683.2H975.849M927.049 732V780.8M927.049 732H975.849M927.049 780.8V829.6M927.049 780.8H975.849M927.049 829.6V878.4M927.049 829.6H975.849M927.049 878.4V927.2M927.049 878.4H975.849M927.049 927.2V976M927.049 927.2H975.849M927.049 976H975.849M975.849 0V48.8M975.849 0H1024.65M975.849 48.8V97.6M975.849 48.8H1024.65M975.849 97.6V146.4M975.849 97.6H1024.65M975.849 146.4V195.2M975.849 146.4H1024.65M975.849 195.2V244M975.849 195.2H1024.65M975.849 244V292.8M975.849 244H1024.65M975.849 292.8V341.6M975.849 292.8H1024.65M975.849 341.6V390.4M975.849 341.6H1024.65M975.849 390.4V439.2M975.849 390.4H1024.65M975.849 439.2V488M975.849 439.2H1024.65M975.849 488V536.8M975.849 488H1024.65M975.849 536.8V585.6M975.849 536.8H1024.65M975.849 585.6V634.4M975.849 585.6H1024.65M975.849 634.4V683.2M975.849 634.4H1024.65M975.849 683.2V732M975.849 683.2H1024.65M975.849 732V780.8M975.849 732H1024.65M975.849 780.8V829.6M975.849 780.8H1024.65M975.849 829.6V878.4M975.849 829.6H1024.65M975.849 878.4V927.2M975.849 878.4H1024.65M975.849 927.2V976M975.849 927.2H1024.65M975.849 976H1024.65M1024.65 0V48.8M1024.65 0H1073.45M1024.65 48.8V97.6M1024.65 48.8H1073.45M1024.65 97.6V146.4M1024.65 97.6H1073.45M1024.65 146.4V195.2M1024.65 146.4H1073.45M1024.65 195.2V244M1024.65 195.2H1073.45M1024.65 244V292.8M1024.65 244H1073.45M1024.65 292.8V341.6M1024.65 292.8H1073.45M1024.65 341.6V390.4M1024.65 341.6H1073.45M1024.65 390.4V439.2M1024.65 390.4H1073.45M1024.65 439.2V488M1024.65 439.2H1073.45M1024.65 488V536.8M1024.65 488H1073.45M1024.65 536.8V585.6M1024.65 536.8H1073.45M1024.65 585.6V634.4M1024.65 585.6H1073.45M1024.65 634.4V683.2M1024.65 634.4H1073.45M1024.65 683.2V732M1024.65 683.2H1073.45M1024.65 732V780.8M1024.65 732H1073.45M1024.65 780.8V829.6M1024.65 780.8H1073.45M1024.65 829.6V878.4M1024.65 829.6H1073.45M1024.65 878.4V927.2M1024.65 878.4H1073.45M1024.65 927.2V976M1024.65 927.2H1073.45M1024.65 976H1073.45M1073.45 0V48.8M1073.45 0H1122.25M1073.45 48.8V97.6M1073.45 48.8H1122.25M1073.45 97.6V146.4M1073.45 97.6H1122.25M1073.45 146.4V195.2M1073.45 146.4H1122.25M1073.45 195.2V244M1073.45 195.2H1122.25M1073.45 244V292.8M1073.45 244H1122.25M1073.45 292.8V341.6M1073.45 292.8H1122.25M1073.45 341.6V390.4M1073.45 341.6H1122.25M1073.45 390.4V439.2M1073.45 390.4H1122.25M1073.45 439.2V488M1073.45 439.2H1122.25M1073.45 488V536.8M1073.45 488H1122.25M1073.45 536.8V585.6M1073.45 536.8H1122.25M1073.45 585.6V634.4M1073.45 585.6H1122.25M1073.45 634.4V683.2M1073.45 634.4H1122.25M1073.45 683.2V732M1073.45 683.2H1122.25M1073.45 732V780.8M1073.45 732H1122.25M1073.45 780.8V829.6M1073.45 780.8H1122.25M1073.45 829.6V878.4M1073.45 829.6H1122.25M1073.45 878.4V927.2M1073.45 878.4H1122.25M1073.45 927.2V976M1073.45 927.2H1122.25M1073.45 976H1122.25M1122.25 0V48.8M1122.25 0H1171.05M1122.25 48.8V97.6M1122.25 48.8H1171.05M1122.25 97.6V146.4M1122.25 97.6H1171.05M1122.25 146.4V195.2M1122.25 146.4H1171.05M1122.25 195.2V244M1122.25 195.2H1171.05M1122.25 244V292.8M1122.25 244H1171.05M1122.25 292.8V341.6M1122.25 292.8H1171.05M1122.25 341.6V390.4M1122.25 341.6H1171.05M1122.25 390.4V439.2M1122.25 390.4H1171.05M1122.25 439.2V488M1122.25 439.2H1171.05M1122.25 488V536.8M1122.25 488H1171.05M1122.25 536.8V585.6M1122.25 536.8H1171.05M1122.25 585.6V634.4M1122.25 585.6H1171.05M1122.25 634.4V683.2M1122.25 634.4H1171.05M1122.25 683.2V732M1122.25 683.2H1171.05M1122.25 732V780.8M1122.25 732H1171.05M1122.25 780.8V829.6M1122.25 780.8H1171.05M1122.25 829.6V878.4M1122.25 829.6H1171.05M1122.25 878.4V927.2M1122.25 878.4H1171.05M1122.25 927.2V976M1122.25 927.2H1171.05M1122.25 976H1171.05M1171.05 0V48.8M1171.05 0H1219.85M1171.05 48.8V97.6M1171.05 48.8H1219.85M1171.05 97.6V146.4M1171.05 97.6H1219.85M1171.05 146.4V195.2M1171.05 146.4H1219.85M1171.05 195.2V244M1171.05 195.2H1219.85M1171.05 244V292.8M1171.05 244H1219.85M1171.05 292.8V341.6M1171.05 292.8H1219.85M1171.05 341.6V390.4M1171.05 341.6H1219.85M1171.05 390.4V439.2M1171.05 390.4H1219.85M1171.05 439.2V488M1171.05 439.2H1219.85M1171.05 488V536.8M1171.05 488H1219.85M1171.05 536.8V585.6M1171.05 536.8H1219.85M1171.05 585.6V634.4M1171.05 585.6H1219.85M1171.05 634.4V683.2M1171.05 634.4H1219.85M1171.05 683.2V732M1171.05 683.2H1219.85M1171.05 732V780.8M1171.05 732H1219.85M1171.05 780.8V829.6M1171.05 780.8H1219.85M1171.05 829.6V878.4M1171.05 829.6H1219.85M1171.05 878.4V927.2M1171.05 878.4H1219.85M1171.05 927.2V976M1171.05 927.2H1219.85M1171.05 976H1219.85M1219.85 0V48.8M1219.85 0H1268.65M1219.85 48.8V97.6M1219.85 48.8H1268.65M1219.85 97.6V146.4M1219.85 97.6H1268.65M1219.85 146.4V195.2M1219.85 146.4H1268.65M1219.85 195.2V244M1219.85 195.2H1268.65M1219.85 244V292.8M1219.85 244H1268.65M1219.85 292.8V341.6M1219.85 292.8H1268.65M1219.85 341.6V390.4M1219.85 341.6H1268.65M1219.85 390.4V439.2M1219.85 390.4H1268.65M1219.85 439.2V488M1219.85 439.2H1268.65M1219.85 488V536.8M1219.85 488H1268.65M1219.85 536.8V585.6M1219.85 536.8H1268.65M1219.85 585.6V634.4M1219.85 585.6H1268.65M1219.85 634.4V683.2M1219.85 634.4H1268.65M1219.85 683.2V732M1219.85 683.2H1268.65M1219.85 732V780.8M1219.85 732H1268.65M1219.85 780.8V829.6M1219.85 780.8H1268.65M1219.85 829.6V878.4M1219.85 829.6H1268.65M1219.85 878.4V927.2M1219.85 878.4H1268.65M1219.85 927.2V976M1219.85 927.2H1268.65M1219.85 976H1268.65M1268.65 0V48.8M1268.65 0H1317.45M1268.65 48.8V97.6M1268.65 48.8H1317.45M1268.65 97.6V146.4M1268.65 97.6H1317.45M1268.65 146.4V195.2M1268.65 146.4H1317.45M1268.65 195.2V244M1268.65 195.2H1317.45M1268.65 244V292.8M1268.65 244H1317.45M1268.65 292.8V341.6M1268.65 292.8H1317.45M1268.65 341.6V390.4M1268.65 341.6H1317.45M1268.65 390.4V439.2M1268.65 390.4H1317.45M1268.65 439.2V488M1268.65 439.2H1317.45M1268.65 488V536.8M1268.65 488H1317.45M1268.65 536.8V585.6M1268.65 536.8H1317.45M1268.65 585.6V634.4M1268.65 585.6H1317.45M1268.65 634.4V683.2M1268.65 634.4H1317.45M1268.65 683.2V732M1268.65 683.2H1317.45M1268.65 732V780.8M1268.65 732H1317.45M1268.65 780.8V829.6M1268.65 780.8H1317.45M1268.65 829.6V878.4M1268.65 829.6H1317.45M1268.65 878.4V927.2M1268.65 878.4H1317.45M1268.65 927.2V976M1268.65 927.2H1317.45M1268.65 976H1317.45M1317.45 0V48.8M1317.45 0H1366.25M1317.45 48.8V97.6M1317.45 48.8H1366.25M1317.45 97.6V146.4M1317.45 97.6H1366.25M1317.45 146.4V195.2M1317.45 146.4H1366.25M1317.45 195.2V244M1317.45 195.2H1366.25M1317.45 244V292.8M1317.45 244H1366.25M1317.45 292.8V341.6M1317.45 292.8H1366.25M1317.45 341.6V390.4M1317.45 341.6H1366.25M1317.45 390.4V439.2M1317.45 390.4H1366.25M1317.45 439.2V488M1317.45 439.2H1366.25M1317.45 488V536.8M1317.45 488H1366.25M1317.45 536.8V585.6M1317.45 536.8H1366.25M1317.45 585.6V634.4M1317.45 585.6H1366.25M1317.45 634.4V683.2M1317.45 634.4H1366.25M1317.45 683.2V732M1317.45 683.2H1366.25M1317.45 732V780.8M1317.45 732H1366.25M1317.45 780.8V829.6M1317.45 780.8H1366.25M1317.45 829.6V878.4M1317.45 829.6H1366.25M1317.45 878.4V927.2M1317.45 878.4H1366.25M1317.45 927.2V976M1317.45 927.2H1366.25M1317.45 976H1366.25M1366.25 0V48.8M1366.25 0H1415.05M1366.25 48.8V97.6M1366.25 48.8H1415.05M1366.25 97.6V146.4M1366.25 97.6H1415.05M1366.25 146.4V195.2M1366.25 146.4H1415.05M1366.25 195.2V244M1366.25 195.2H1415.05M1366.25 244V292.8M1366.25 244H1415.05M1366.25 292.8V341.6M1366.25 292.8H1415.05M1366.25 341.6V390.4M1366.25 341.6H1415.05M1366.25 390.4V439.2M1366.25 390.4H1415.05M1366.25 439.2V488M1366.25 439.2H1415.05M1366.25 488V536.8M1366.25 488H1415.05M1366.25 536.8V585.6M1366.25 536.8H1415.05M1366.25 585.6V634.4M1366.25 585.6H1415.05M1366.25 634.4V683.2M1366.25 634.4H1415.05M1366.25 683.2V732M1366.25 683.2H1415.05M1366.25 732V780.8M1366.25 732H1415.05M1366.25 780.8V829.6M1366.25 780.8H1415.05M1366.25 829.6V878.4M1366.25 829.6H1415.05M1366.25 878.4V927.2M1366.25 878.4H1415.05M1366.25 927.2V976M1366.25 927.2H1415.05M1366.25 976H1415.05M1415.05 0V48.8M1415.05 0H1463.85M1415.05 48.8V97.6M1415.05 48.8H1463.85M1415.05 97.6V146.4M1415.05 97.6H1463.85M1415.05 146.4V195.2M1415.05 146.4H1463.85M1415.05 195.2V244M1415.05 195.2H1463.85M1415.05 244V292.8M1415.05 244H1463.85M1415.05 292.8V341.6M1415.05 292.8H1463.85M1415.05 341.6V390.4M1415.05 341.6H1463.85M1415.05 390.4V439.2M1415.05 390.4H1463.85M1415.05 439.2V488M1415.05 439.2H1463.85M1415.05 488V536.8M1415.05 488H1463.85M1415.05 536.8V585.6M1415.05 536.8H1463.85M1415.05 585.6V634.4M1415.05 585.6H1463.85M1415.05 634.4V683.2M1415.05 634.4H1463.85M1415.05 683.2V732M1415.05 683.2H1463.85M1415.05 732V780.8M1415.05 732H1463.85M1415.05 780.8V829.6M1415.05 780.8H1463.85M1415.05 829.6V878.4M1415.05 829.6H1463.85M1415.05 878.4V927.2M1415.05 878.4H1463.85M1415.05 927.2V976M1415.05 927.2H1463.85M1415.05 976H1463.85M1463.85 0V48.8M1463.85 0H1512.65M1463.85 48.8V97.6M1463.85 48.8H1512.65M1463.85 97.6V146.4M1463.85 97.6H1512.65M1463.85 146.4V195.2M1463.85 146.4H1512.65M1463.85 195.2V244M1463.85 195.2H1512.65M1463.85 244V292.8M1463.85 244H1512.65M1463.85 292.8V341.6M1463.85 292.8H1512.65M1463.85 341.6V390.4M1463.85 341.6H1512.65M1463.85 390.4V439.2M1463.85 390.4H1512.65M1463.85 439.2V488M1463.85 439.2H1512.65M1463.85 488V536.8M1463.85 488H1512.65M1463.85 536.8V585.6M1463.85 536.8H1512.65M1463.85 585.6V634.4M1463.85 585.6H1512.65M1463.85 634.4V683.2M1463.85 634.4H1512.65M1463.85 683.2V732M1463.85 683.2H1512.65M1463.85 732V780.8M1463.85 732H1512.65M1463.85 780.8V829.6M1463.85 780.8H1512.65M1463.85 829.6V878.4M1463.85 829.6H1512.65M1463.85 878.4V927.2M1463.85 878.4H1512.65M1463.85 927.2V976M1463.85 927.2H1512.65M1463.85 976H1512.65M1512.65 0V48.8M1512.65 0H1561.45M1512.65 48.8V97.6M1512.65 48.8H1561.45M1512.65 97.6V146.4M1512.65 97.6H1561.45M1512.65 146.4V195.2M1512.65 146.4H1561.45M1512.65 195.2V244M1512.65 195.2H1561.45M1512.65 244V292.8M1512.65 244H1561.45M1512.65 292.8V341.6M1512.65 292.8H1561.45M1512.65 341.6V390.4M1512.65 341.6H1561.45M1512.65 390.4V439.2M1512.65 390.4H1561.45M1512.65 439.2V488M1512.65 439.2H1561.45M1512.65 488V536.8M1512.65 488H1561.45M1512.65 536.8V585.6M1512.65 536.8H1561.45M1512.65 585.6V634.4M1512.65 585.6H1561.45M1512.65 634.4V683.2M1512.65 634.4H1561.45M1512.65 683.2V732M1512.65 683.2H1561.45M1512.65 732V780.8M1512.65 732H1561.45M1512.65 780.8V829.6M1512.65 780.8H1561.45M1512.65 829.6V878.4M1512.65 829.6H1561.45M1512.65 878.4V927.2M1512.65 878.4H1561.45M1512.65 927.2V976M1512.65 927.2H1561.45M1512.65 976H1561.45M1561.45 0V48.8M1561.45 0H1610.25M1561.45 48.8V97.6M1561.45 48.8H1610.25M1561.45 97.6V146.4M1561.45 97.6H1610.25M1561.45 146.4V195.2M1561.45 146.4H1610.25M1561.45 195.2V244M1561.45 195.2H1610.25M1561.45 244V292.8M1561.45 244H1610.25M1561.45 292.8V341.6M1561.45 292.8H1610.25M1561.45 341.6V390.4M1561.45 341.6H1610.25M1561.45 390.4V439.2M1561.45 390.4H1610.25M1561.45 439.2V488M1561.45 439.2H1610.25M1561.45 488V536.8M1561.45 488H1610.25M1561.45 536.8V585.6M1561.45 536.8H1610.25M1561.45 585.6V634.4M1561.45 585.6H1610.25M1561.45 634.4V683.2M1561.45 634.4H1610.25M1561.45 683.2V732M1561.45 683.2H1610.25M1561.45 732V780.8M1561.45 732H1610.25M1561.45 780.8V829.6M1561.45 780.8H1610.25M1561.45 829.6V878.4M1561.45 829.6H1610.25M1561.45 878.4V927.2M1561.45 878.4H1610.25M1561.45 927.2V976M1561.45 927.2H1610.25M1561.45 976H1610.25M1610.25 0V48.8M1610.25 0H1659.05M1610.25 48.8V97.6M1610.25 48.8H1659.05M1610.25 97.6V146.4M1610.25 97.6H1659.05M1610.25 146.4V195.2M1610.25 146.4H1659.05M1610.25 195.2V244M1610.25 195.2H1659.05M1610.25 244V292.8M1610.25 244H1659.05M1610.25 292.8V341.6M1610.25 292.8H1659.05M1610.25 341.6V390.4M1610.25 341.6H1659.05M1610.25 390.4V439.2M1610.25 390.4H1659.05M1610.25 439.2V488M1610.25 439.2H1659.05M1610.25 488V536.8M1610.25 488H1659.05M1610.25 536.8V585.6M1610.25 536.8H1659.05M1610.25 585.6V634.4M1610.25 585.6H1659.05M1610.25 634.4V683.2M1610.25 634.4H1659.05M1610.25 683.2V732M1610.25 683.2H1659.05M1610.25 732V780.8M1610.25 732H1659.05M1610.25 780.8V829.6M1610.25 780.8H1659.05M1610.25 829.6V878.4M1610.25 829.6H1659.05M1610.25 878.4V927.2M1610.25 878.4H1659.05M1610.25 927.2V976M1610.25 927.2H1659.05M1610.25 976H1659.05M1659.05 0V48.8M1659.05 0H1707.85M1659.05 48.8V97.6M1659.05 48.8H1707.85M1659.05 97.6V146.4M1659.05 97.6H1707.85M1659.05 146.4V195.2M1659.05 146.4H1707.85M1659.05 195.2V244M1659.05 195.2H1707.85M1659.05 244V292.8M1659.05 244H1707.85M1659.05 292.8V341.6M1659.05 292.8H1707.85M1659.05 341.6V390.4M1659.05 341.6H1707.85M1659.05 390.4V439.2M1659.05 390.4H1707.85M1659.05 439.2V488M1659.05 439.2H1707.85M1659.05 488V536.8M1659.05 488H1707.85M1659.05 536.8V585.6M1659.05 536.8H1707.85M1659.05 585.6V634.4M1659.05 585.6H1707.85M1659.05 634.4V683.2M1659.05 634.4H1707.85M1659.05 683.2V732M1659.05 683.2H1707.85M1659.05 732V780.8M1659.05 732H1707.85M1659.05 780.8V829.6M1659.05 780.8H1707.85M1659.05 829.6V878.4M1659.05 829.6H1707.85M1659.05 878.4V927.2M1659.05 878.4H1707.85M1659.05 927.2V976M1659.05 927.2H1707.85M1659.05 976H1707.85M1707.85 0V48.8M1707.85 0H1756.65M1707.85 48.8V97.6M1707.85 48.8H1756.65M1707.85 97.6V146.4M1707.85 97.6H1756.65M1707.85 146.4V195.2M1707.85 146.4H1756.65M1707.85 195.2V244M1707.85 195.2H1756.65M1707.85 244V292.8M1707.85 244H1756.65M1707.85 292.8V341.6M1707.85 292.8H1756.65M1707.85 341.6V390.4M1707.85 341.6H1756.65M1707.85 390.4V439.2M1707.85 390.4H1756.65M1707.85 439.2V488M1707.85 439.2H1756.65M1707.85 488V536.8M1707.85 488H1756.65M1707.85 536.8V585.6M1707.85 536.8H1756.65M1707.85 585.6V634.4M1707.85 585.6H1756.65M1707.85 634.4V683.2M1707.85 634.4H1756.65M1707.85 683.2V732M1707.85 683.2H1756.65M1707.85 732V780.8M1707.85 732H1756.65M1707.85 780.8V829.6M1707.85 780.8H1756.65M1707.85 829.6V878.4M1707.85 829.6H1756.65M1707.85 878.4V927.2M1707.85 878.4H1756.65M1707.85 927.2V976M1707.85 927.2H1756.65M1707.85 976H1756.65M1756.65 0V48.8M1756.65 0H1805.45M1756.65 48.8V97.6M1756.65 48.8H1805.45M1756.65 97.6V146.4M1756.65 97.6H1805.45M1756.65 146.4V195.2M1756.65 146.4H1805.45M1756.65 195.2V244M1756.65 195.2H1805.45M1756.65 244V292.8M1756.65 244H1805.45M1756.65 292.8V341.6M1756.65 292.8H1805.45M1756.65 341.6V390.4M1756.65 341.6H1805.45M1756.65 390.4V439.2M1756.65 390.4H1805.45M1756.65 439.2V488M1756.65 439.2H1805.45M1756.65 488V536.8M1756.65 488H1805.45M1756.65 536.8V585.6M1756.65 536.8H1805.45M1756.65 585.6V634.4M1756.65 585.6H1805.45M1756.65 634.4V683.2M1756.65 634.4H1805.45M1756.65 683.2V732M1756.65 683.2H1805.45M1756.65 732V780.8M1756.65 732H1805.45M1756.65 780.8V829.6M1756.65 780.8H1805.45M1756.65 829.6V878.4M1756.65 829.6H1805.45M1756.65 878.4V927.2M1756.65 878.4H1805.45M1756.65 927.2V976M1756.65 927.2H1805.45M1756.65 976H1805.45M1805.45 0V48.8M1805.45 0H1854.25M1805.45 48.8V97.6M1805.45 48.8H1854.25M1805.45 97.6V146.4M1805.45 97.6H1854.25M1805.45 146.4V195.2M1805.45 146.4H1854.25M1805.45 195.2V244M1805.45 195.2H1854.25M1805.45 244V292.8M1805.45 244H1854.25M1805.45 292.8V341.6M1805.45 292.8H1854.25M1805.45 341.6V390.4M1805.45 341.6H1854.25M1805.45 390.4V439.2M1805.45 390.4H1854.25M1805.45 439.2V488M1805.45 439.2H1854.25M1805.45 488V536.8M1805.45 488H1854.25M1805.45 536.8V585.6M1805.45 536.8H1854.25M1805.45 585.6V634.4M1805.45 585.6H1854.25M1805.45 634.4V683.2M1805.45 634.4H1854.25M1805.45 683.2V732M1805.45 683.2H1854.25M1805.45 732V780.8M1805.45 732H1854.25M1805.45 780.8V829.6M1805.45 780.8H1854.25M1805.45 829.6V878.4M1805.45 829.6H1854.25M1805.45 878.4V927.2M1805.45 878.4H1854.25M1805.45 927.2V976M1805.45 927.2H1854.25M1805.45 976H1854.25M1854.25 0V48.8M1854.25 0H1903.05M1854.25 48.8V97.6M1854.25 48.8H1903.05M1854.25 97.6V146.4M1854.25 97.6H1903.05M1854.25 146.4V195.2M1854.25 146.4H1903.05M1854.25 195.2V244M1854.25 195.2H1903.05M1854.25 244V292.8M1854.25 244H1903.05M1854.25 292.8V341.6M1854.25 292.8H1903.05M1854.25 341.6V390.4M1854.25 341.6H1903.05M1854.25 390.4V439.2M1854.25 390.4H1903.05M1854.25 439.2V488M1854.25 439.2H1903.05M1854.25 488V536.8M1854.25 488H1903.05M1854.25 536.8V585.6M1854.25 536.8H1903.05M1854.25 585.6V634.4M1854.25 585.6H1903.05M1854.25 634.4V683.2M1854.25 634.4H1903.05M1854.25 683.2V732M1854.25 683.2H1903.05M1854.25 732V780.8M1854.25 732H1903.05M1854.25 780.8V829.6M1854.25 780.8H1903.05M1854.25 829.6V878.4M1854.25 829.6H1903.05M1854.25 878.4V927.2M1854.25 878.4H1903.05M1854.25 927.2V976M1854.25 927.2H1903.05M1854.25 976H1903.05M1903.05 0V48.8M1903.05 0H1951.85M1903.05 48.8V97.6M1903.05 48.8H1951.85M1903.05 97.6V146.4M1903.05 97.6H1951.85M1903.05 146.4V195.2M1903.05 146.4H1951.85M1903.05 195.2V244M1903.05 195.2H1951.85M1903.05 244V292.8M1903.05 244H1951.85M1903.05 292.8V341.6M1903.05 292.8H1951.85M1903.05 341.6V390.4M1903.05 341.6H1951.85M1903.05 390.4V439.2M1903.05 390.4H1951.85M1903.05 439.2V488M1903.05 439.2H1951.85M1903.05 488V536.8M1903.05 488H1951.85M1903.05 536.8V585.6M1903.05 536.8H1951.85M1903.05 585.6V634.4M1903.05 585.6H1951.85M1903.05 634.4V683.2M1903.05 634.4H1951.85M1903.05 683.2V732M1903.05 683.2H1951.85M1903.05 732V780.8M1903.05 732H1951.85M1903.05 780.8V829.6M1903.05 780.8H1951.85M1903.05 829.6V878.4M1903.05 829.6H1951.85M1903.05 878.4V927.2M1903.05 878.4H1951.85M1903.05 927.2V976M1903.05 927.2H1951.85M1903.05 976H1951.85M1951.85 0V48.8M1951.85 0H2000.65M1951.85 48.8V97.6M1951.85 48.8H2000.65M1951.85 97.6V146.4M1951.85 97.6H2000.65M1951.85 146.4V195.2M1951.85 146.4H2000.65M1951.85 195.2V244M1951.85 195.2H2000.65M1951.85 244V292.8M1951.85 244H2000.65M1951.85 292.8V341.6M1951.85 292.8H2000.65M1951.85 341.6V390.4M1951.85 341.6H2000.65M1951.85 390.4V439.2M1951.85 390.4H2000.65M1951.85 439.2V488M1951.85 439.2H2000.65M1951.85 488V536.8M1951.85 488H2000.65M1951.85 536.8V585.6M1951.85 536.8H2000.65M1951.85 585.6V634.4M1951.85 585.6H2000.65M1951.85 634.4V683.2M1951.85 634.4H2000.65M1951.85 683.2V732M1951.85 683.2H2000.65M1951.85 732V780.8M1951.85 732H2000.65M1951.85 780.8V829.6M1951.85 780.8H2000.65M1951.85 829.6V878.4M1951.85 829.6H2000.65M1951.85 878.4V927.2M1951.85 878.4H2000.65M1951.85 927.2V976M1951.85 927.2H2000.65M1951.85 976H2000.65M2000.65 0V48.8M2000.65 0H2049.45M2000.65 48.8V97.6M2000.65 48.8H2049.45M2000.65 97.6V146.4M2000.65 97.6H2049.45M2000.65 146.4V195.2M2000.65 146.4H2049.45M2000.65 195.2V244M2000.65 195.2H2049.45M2000.65 244V292.8M2000.65 244H2049.45M2000.65 292.8V341.6M2000.65 292.8H2049.45M2000.65 341.6V390.4M2000.65 341.6H2049.45M2000.65 390.4V439.2M2000.65 390.4H2049.45M2000.65 439.2V488M2000.65 439.2H2049.45M2000.65 488V536.8M2000.65 488H2049.45M2000.65 536.8V585.6M2000.65 536.8H2049.45M2000.65 585.6V634.4M2000.65 585.6H2049.45M2000.65 634.4V683.2M2000.65 634.4H2049.45M2000.65 683.2V732M2000.65 683.2H2049.45M2000.65 732V780.8M2000.65 732H2049.45M2000.65 780.8V829.6M2000.65 780.8H2049.45M2000.65 829.6V878.4M2000.65 829.6H2049.45M2000.65 878.4V927.2M2000.65 878.4H2049.45M2000.65 927.2V976M2000.65 927.2H2049.45M2000.65 976H2049.45M2049.45 0V48.8M2049.45 0H2098.25M2049.45 48.8V97.6M2049.45 48.8H2098.25M2049.45 97.6V146.4M2049.45 97.6H2098.25M2049.45 146.4V195.2M2049.45 146.4H2098.25M2049.45 195.2V244M2049.45 195.2H2098.25M2049.45 244V292.8M2049.45 244H2098.25M2049.45 292.8V341.6M2049.45 292.8H2098.25M2049.45 341.6V390.4M2049.45 341.6H2098.25M2049.45 390.4V439.2M2049.45 390.4H2098.25M2049.45 439.2V488M2049.45 439.2H2098.25M2049.45 488V536.8M2049.45 488H2098.25M2049.45 536.8V585.6M2049.45 536.8H2098.25M2049.45 585.6V634.4M2049.45 585.6H2098.25M2049.45 634.4V683.2M2049.45 634.4H2098.25M2049.45 683.2V732M2049.45 683.2H2098.25M2049.45 732V780.8M2049.45 732H2098.25M2049.45 780.8V829.6M2049.45 780.8H2098.25M2049.45 829.6V878.4M2049.45 829.6H2098.25M2049.45 878.4V927.2M2049.45 878.4H2098.25M2049.45 927.2V976M2049.45 927.2H2098.25M2049.45 976H2098.25M2098.25 0V48.8M2098.25 0H2147.05V48.8M2098.25 48.8V97.6M2098.25 48.8H2147.05M2098.25 97.6V146.4M2098.25 97.6H2147.05M2098.25 146.4V195.2M2098.25 146.4H2147.05M2098.25 195.2V244M2098.25 195.2H2147.05M2098.25 244V292.8M2098.25 244H2147.05M2098.25 292.8V341.6M2098.25 292.8H2147.05M2098.25 341.6V390.4M2098.25 341.6H2147.05M2098.25 390.4V439.2M2098.25 390.4H2147.05M2098.25 439.2V488M2098.25 439.2H2147.05M2098.25 488V536.8M2098.25 488H2147.05M2098.25 536.8V585.6M2098.25 536.8H2147.05M2098.25 585.6V634.4M2098.25 585.6H2147.05M2098.25 634.4V683.2M2098.25 634.4H2147.05M2098.25 683.2V732M2098.25 683.2H2147.05M2098.25 732V780.8M2098.25 732H2147.05M2098.25 780.8V829.6M2098.25 780.8H2147.05M2098.25 829.6V878.4M2098.25 829.6H2147.05M2098.25 878.4V927.2M2098.25 878.4H2147.05M2098.25 927.2V976M2098.25 927.2H2147.05M2098.25 976H2147.05V927.2M2147.05 48.8V97.6M2147.05 97.6V146.4M2147.05 146.4V195.2M2147.05 195.2V244M2147.05 244V292.8M2147.05 292.8V341.6M2147.05 341.6V390.4M2147.05 390.4V439.2M2147.05 439.2V488M2147.05 488V536.8M2147.05 536.8V585.6M2147.05 585.6V634.4M2147.05 634.4V683.2M2147.05 683.2V732M2147.05 732V780.8M2147.05 780.8V829.6M2147.05 829.6V878.4M2147.05 878.4V927.2" stroke="url(#paint0_radial_77_304)" stroke-opacity="0.61" stroke-width="0.805493"/>
</g>
<defs>
<radialGradient id="paint0_radial_77_304" cx="0" cy="0" r="1" gradientUnits="userSpaceOnUse" gradientTransform="translate(1073.45 488) rotate(90) scale(488 1073.6)">
<stop stop-color="#5F6CFC" stop-opacity="0.5"/>
<stop offset="1" stop-color="white" stop-opacity="0.1"/>
</radialGradient>
</defs>
</svg>
