<svg width="41" height="36" viewBox="0 0 41 36" fill="none" xmlns="http://www.w3.org/2000/svg">
<path id="Vector" d="M5.36621 15.5C5.48586 19.2979 6.96359 22.9229 9.52539 25.6807L9.78809 25.9561C12.6269 28.8641 16.48 30.5 20.5 30.5C24.3944 30.5 28.1317 28.9644 30.9424 26.2246L31.2119 25.9561C33.935 23.1666 35.5101 19.4257 35.6338 15.5H40.4941C40.3729 20.59 38.4076 25.4508 34.9844 29.1357L34.6377 29.5C30.886 33.3431 25.8003 35.4998 20.5 35.5L20.0039 35.4941C15.0484 35.368 10.3121 33.3592 6.71777 29.8555L6.3623 29.5C2.72533 25.7743 0.631099 20.7594 0.505859 15.5H5.36621ZM28.7695 15.5C28.6583 17.4353 27.9065 19.2735 26.6377 20.709L26.3545 21.0146C24.7997 22.6073 22.6935 23.4998 20.5 23.5L20.0898 23.4893C18.1816 23.3922 16.3626 22.6212 14.9434 21.3047L14.6455 21.0146C13.2055 19.5395 12.3497 17.5754 12.2305 15.5H28.7695ZM20.5 0.5C24.1299 0.5 27.6184 1.93067 30.2451 4.49121L30.4961 4.74219C33.0347 7.34266 34.5105 10.8323 34.6338 14.5H29.7725C29.6603 12.3224 28.8194 10.2476 27.3877 8.62793L27.0703 8.28711C25.4386 6.61562 23.2595 5.62855 20.9609 5.51172L20.5 5.5C18.1876 5.50007 15.9664 6.38264 14.2637 7.96191L13.9297 8.28711C12.3054 9.95109 11.3477 12.1663 11.2275 14.5H6.36621C6.4855 10.9519 7.87037 7.571 10.2588 5L10.5039 4.74219C13.0743 2.10929 16.5295 0.596825 20.1494 0.504883L20.5 0.5Z" fill="url(#paint0_radial_78_350)" stroke="url(#paint1_linear_78_350)"/>
<defs>
<radialGradient id="paint0_radial_78_350" cx="0" cy="0" r="1" gradientUnits="userSpaceOnUse" gradientTransform="translate(3.93054 -10.3291) rotate(51.3357) scale(59.3339 107.006)">
<stop stop-color="#6A46AC"/>
<stop offset="0.63" stop-color="#31008C"/>
</radialGradient>
<linearGradient id="paint1_linear_78_350" x1="20.5" y1="0" x2="20.5" y2="36" gradientUnits="userSpaceOnUse">
<stop stop-color="#2E62FF"/>
<stop offset="1" stop-color="#7F89FD"/>
</linearGradient>
</defs>
</svg>
